<?xml version="1.0" encoding="UTF-8"?>
<svg xmlns="http://www.w3.org/2000/svg" viewBox="0 0 2347.16 1694.67">
  <defs>
    <style>
      .cls-1 {
        fill: #c7c6c3;
      }

      .cls-2, .cls-3 {
        fill: #231815;
      }

      .cls-4 {
        stroke: #f5f5f5;
        stroke-width: 15px;
      }

      .cls-4, .cls-5, .cls-6, .cls-3 {
        stroke-linecap: round;
      }

      .cls-4, .cls-5, .cls-3 {
        stroke-linejoin: round;
      }

      .cls-4, .cls-7 {
        fill: #f5f5f5;
      }

      .cls-5 {
        fill: #3f3b4a;
      }

      .cls-5, .cls-6, .cls-3 {
        stroke: #231815;
        stroke-width: 36px;
      }

      .cls-8 {
        fill: #6c7b87;
      }

      .cls-9 {
        fill: #7d8e9c;
      }

      .cls-6 {
        fill: none;
        stroke-miterlimit: 10;
      }
    </style>
  </defs>
  <g id="_图层_4" data-name="图层 4">
    <g>
      <path class="cls-8" d="M1850.2,919.79s155.31,208.65,270.08,234.41,42.88,111.36,42.88,111.36c-11.71,16.4-102.17,132.03-341.07,33.66l28.11-379.43Z"/>
      <path class="cls-2" d="M1846.57,907.31c2.47-.84,7.19-.73,10.53,1.48,3.96,2.92,4.06,4.11,3.71,3.37.75.57,2.19,1.75,2.95,2.37,15.23,12.99,28.68,27.93,41.45,43.27,27.33,32.37,55.64,63.93,85.85,93.6,36.13,34.66,78.97,73.57,127.18,88.88,16.07,4.16,32,8.7,46.38,17.51,31.93,19.13,39.78,50.79,25.33,84.35-4.72,11.05-10.9,21.18-18.45,30.44-26.65,36.14-76.19,62.72-123.09,70.74-62.48,11.63-126.58.26-186.17-18.95,0,0-22.07-7.74-22.07-7.74-7.4-2.51-13.95-6.97-23.03-5.39,0,0-8.72-3.42-8.73-3.42,0,0,.71-9.56.71-9.56,8.86-128.58,23.67-262.55,37.44-390.95h0ZM1853.82,932.27c-5.07,123.18-9.01,245.15-18.77,367.91.01,0-8.04-13.01-8-12.98,5.21,7.18,12.95,8.32,19.84,11.41l21.37,7.54c10.02,3.11,22.35,7.05,32.53,9.56,6.13,1.77,15.63,3.78,21.94,5.21,3.03.73,7.95,1.54,11.05,2.11,10.56,1.99,22.66,3.68,33.36,4.49,1.97.16,6.46.57,8.37.7,1.84.1,11.9.43,13.96.53,47.49.84,96.6-10.23,134.81-39.34,11.57-8.66,22.25-19.22,30.51-30.88,5.84-7.57,10.8-16.16,14.33-24.97,17.13-42.26-14.99-59.24-51.28-66.68-2.55-.6-6.1-1.31-8.56-2.03-83.82-23.21-177.2-117.02-233.13-182.45-14.05-16.37-27.07-34.04-35.96-53.83,0,0-.21-.5-.21-.5,0,0-.11-.25-.11-.25-.4-.81-.35.32,3.56,3.17,3.29,2.14,7.96,2.19,10.38,1.28h0Z"/>
    </g>
  </g>
  <g id="_图层_2" data-name="图层 2">
    <path class="cls-9" d="M254.45,822.69c-.32-14.35,6.76-124.84,61.01-153.71,43.57-23.18,61.01,23.42,70.03,32.05,0,0,46.1,60.69,94.58-42.76,55.41-118.25,169.96-471.65,592.75-495.02s739.34,150.84,845.57,403.66,121.1,369.67,0,650.11-667.44,291.06-744.82,291.06-510.9-.22-740.24-271.94c-195.46-231.58-179.48-405.93-178.89-413.45Z"/>
  </g>
  <g id="_图层_8" data-name="图层 8">
    <path class="cls-1" d="M352.95,1110.39s-22.16-55.57,22.16-17.37,342.57,337.41,528.5,267.98c485.23-181.18,889.52,2.26,879.49,20.74s-293.03,123.44-681.73,126.36-739.9-290.31-748.43-397.71"/>
  </g>
  <g id="_图层_5" data-name="图层 5">
    <path class="cls-2" d="M236.71,822.19c.48-22.84,3.92-45.33,9.04-67.59,9.46-38.54,26.65-82.43,65.56-99.77,32.29-14.4,57.4-2.32,76.17,25.07,2.71,3.77,4.99,7.44,7.79,10.86,5.31,6.22,12.75,12.09,21.24,12.93.66,0,1.31.05,1.96.07,0,0,.65-.06.65-.06,0,0,1.29-.07,1.29-.07.43-.09.86-.17,1.29-.23,0,0,.65-.09.65-.09,0,0,.65-.19.65-.19.43-.13.87-.25,1.3-.35.44-.1.88-.35,1.32-.5,0,0,1.33-.51,1.33-.51,6.26-2.94,12.57-8.85,17.18-14.66,7.01-8.57,12.6-18.41,17.63-28.25,3.83-7.96,7.81-16.31,11.3-24.43,19.76-45.37,39.71-91.58,63.42-135.39,71.89-135.83,179.07-250.26,324.2-307.48,67.94-27.17,140.18-41.23,212.95-45.11,10.47-.43,27.04-1.09,37.51-1.52,65.72-1.44,131.67,1.47,196.87,10.63,105.7,14.62,209.95,44.87,305.3,93.24,9.37,4.77,19.93,10.63,29.21,15.57,0,0,4.09,2.38,4.09,2.38,0,0,16.35,9.54,16.35,9.54,9.43,5.37,18.86,11.86,28.1,17.56,7.18,4.88,20.28,13.7,27.34,18.75,6.46,4.68,16.61,12.49,22.78,17.01,4.49,3.49,17.68,14.36,22.13,17.87,6.12,5.19,15.59,13.72,21.44,18.72,4.64,4.2,16.15,15.34,20.69,19.55,6.21,6.43,13.72,13.88,19.9,20.38,4.32,4.61,14.93,16.51,19.07,21.17,2.85,3.54,9.29,11.01,12.19,14.58,6.11,7.04,14.77,18.94,20.51,26.2,11.03,15.39,22.02,31.16,31.88,47.33,3.62,5.99,8.52,14.51,12.11,20.49,3.12,5.89,8.13,15.06,11.27,20.97,6.72,13.1,14.46,29.55,20.28,43.03,61.59,144.53,74.38,305.85,52.34,460.48-.91,5.6-2.27,13.27-3.36,18.77-13.86,68.84-39.09,136.32-76.9,195.71-134.4,203.12-463.64,246.65-689.26,252.09-150.01,3.92-301.66-8.9-445.93-51.94-120.98-35.9-237.78-93.82-329-182.35-29.65-28.48-55.8-60.69-80.43-93.52-58.5-78.54-106.7-166.42-130.65-261.94-8.97-37.48-15.22-76.29-12.76-114.99h0ZM272.2,823.19c-2.1,35.4,4,70.82,12.44,105.17,24.05,93.32,72.6,179.21,130.84,255.67,14.74,19,29.97,38.09,46.18,55.87,24.21,26.49,50.94,50.8,79.6,72.47,96.64,73.15,212.06,117.87,329.65,144.45,166.86,37.58,340.48,38.66,510.12,22.41,173.7-18.44,409.52-70.45,510.27-226.07,37.65-60.83,59.77-130.17,73.61-200.08,16.02-70.78,17.94-144.12,10.85-216.23-11.36-119.74-48.03-239.03-118.09-337.64-1.03-1.57-6.51-9.2-7.8-11.06,0,0-2.75-3.58-2.75-3.58,0,0-10.98-14.34-10.98-14.34-2.95-3.78-8.25-10.12-11.47-13.96-1.64-2.1-6.89-8.29-8.75-10.35,0,0-3.03-3.35-3.03-3.35,0,0-12.12-13.41-12.12-13.41-6.06-6.1-12.81-13.27-18.94-19.42-3.53-3.45-15.84-14.92-19.71-18.65-8-7-19.3-17.1-27.48-23.56-10.07-8.62-25.34-19.76-35.85-27.66-6.64-4.78-19.24-13.33-26.15-17.96-8.86-5.48-17.92-11.68-26.91-16.84,0,0-15.67-9.16-15.67-9.16-153.77-87.34-333.24-121.11-508.89-117.59-13.85.09-31.84,1.11-45.72,1.6-111.03,5.49-221.7,37.73-312.67,102.6-84.34,59.11-148.87,141.72-197.4,232.07-26.56,48.54-47.47,99.58-70.42,150.16-2.36,4.94-6.34,12.77-9.09,17.53-6.85,11.96-15.01,23.64-25.11,33.12-13.63,12.83-31.65,21.36-51.19,17.2-10.1-2.06-19.41-7.38-26.96-14.08-2.98-2.79-5.9-5.55-8.41-8.91,0,0,1.49,1.67,1.49,1.67-.66-.6-1.1-1.21-1.71-1.83-3.64-4.24-6.33-9.19-9.4-13.56-12.78-18.93-25.19-26.38-45.77-11.56-33.6,26.32-45.83,97.97-46.6,138.84h0Z"/>
  </g>
  <g id="_图层_3" data-name="图层 3">
    <g>
      <path class="cls-9" d="M532.47,910.23s-32.79,173.32-210.79,243.58-47.96,163.3,93.8,188.18c139.16,24.43,311.39-33.6,311.39-33.6"/>
      <path class="cls-2" d="M539.59,911.58c-3.46,21.2-9.98,41.73-17.84,61.68-9.94,24.82-22.69,48.67-37.79,70.75-41.26,59.8-95.84,101.46-163.13,128.26-23.16,10.12-74.47,34.83-67.46,65.03,8.07,29.94,55.24,54.1,82.54,65.4,65.13,27.41,136.7,34.89,206.9,29.12,51.05-3.66,101.67-12.62,151.36-24.86,7.34-1.8,15-3.9,22.28-5.87,2.47-.7,5.02-1.42,7.36-2.12,5.24-1.58,10.77,1.39,12.34,6.64,1.52,5.06-1.22,10.39-6.12,12.18-4.18,1.64-10.79,3.63-15.11,5.13-75.6,23.8-153.62,39.26-233.38,39.59-64.47-.25-129.75-14.03-187.75-42.81-25.66-13.34-51.14-29.85-66.42-55.35-19.8-33.59-6.62-67.16,21.96-90.12,21.9-17.96,47.24-28.53,72.99-38.69,62.61-24.68,116.57-69.13,154.31-124.81,19.8-29.21,35.86-61.16,46.65-94.8,0,0,1.08-3.59,1.08-3.59.37-1.25.75-2.6,1.05-3.72,2.5-8.55,15.21-6.26,14.17,2.96h0Z"/>
    </g>
  </g>
  <g id="_图层_6" data-name="图层 6">
    <path class="cls-5" d="M1256.52,1096.66s16.38-75.65,161.06-73.29c108.28,1.76,160.09,66.44,143.18,106.02-9.67,22.64-65.45,68.44-149.85-13.58-73.95,77.17-178.32,45.26-154.39-19.15Z"/>
    <ellipse class="cls-3" cx="1181.82" cy="845.07" rx="94.07" ry="100.1"/>
    <ellipse class="cls-3" cx="1631.34" cy="852.92" rx="91.57" ry="97.45"/>
  </g>
  <g id="_图层_11" data-name="图层 11">
    <path class="cls-6" d="M1161.67,633.32s14.43-5,28.87,0"/>
    <path class="cls-6" d="M1617.75,650.23s10.56-2.45,21.13,1.62"/>
  </g>
  <g id="_图层_7" data-name="图层 7">
    <ellipse class="cls-7" cx="1181.82" cy="821.31" rx="67.17" ry="58.31"/>
    <ellipse class="cls-7" cx="1634.31" cy="829.25" rx="66.46" ry="54.85"/>
    <path class="cls-4" d="M1137.06,900.04c-2.93-2.11-7.07,2.14-5.23,4.93,5.59,8.47,18.98,20.3,53.48,21.47,12.77.43,32.2-4.28,43.1-19.75,1.08-1.53-.92-3.26-2.91-2.54-7.4,2.67-16.16,8.93-44.2,8.85,0,0-26.23,0-44.24-12.96Z"/>
    <path class="cls-4" d="M1592.39,905.27c-2.59-2.01-6.26,2.04-4.63,4.71,4.95,8.1,16.81,19.42,47.37,20.54,11.31.42,28.52-4.09,38.18-18.89.95-1.46-.81-3.12-2.58-2.43-6.55,2.55-14.31,8.55-39.15,8.47,0,0-23.23,0-39.19-12.4Z"/>
  </g>
  <g id="_图层_9" data-name="图层 9">
    <path class="cls-2" d="M1248.25,1083.92c-44.34-17.91-90.48-31.47-137.12-41.94-66.07-14.43-134.4-22.02-201.9-15.28-3.66.29-8.21.98-11.82,1.41-6.94.75-16.59,2.52-23.5,3.67-11.32,1.92-14.73-14.21-3.39-16.91,7.24-1.37,17.25-3.38,24.42-4.32,6.83-1.14,17.58-2.34,24.58-3.07,3.45-.39,8.79-.72,12.33-1,6.93-.62,17.64-.95,24.69-1.25,53.41-1.2,106.82,4.7,159.13,15.13,48.32,9.84,96.04,22.85,142.15,40.46,15.26,6.78,6.3,29.08-9.56,23.1h0Z"/>
    <path class="cls-2" d="M1252.94,1141.33c-87.28-18.84-263.47-48.71-344.85-15.78-6.72,2.82-13.03,6.25-18.48,10.45-3.84,3.06-9.47,2.38-12.47-1.52-2.93-3.8-2.26-9.24,1.46-12.24,6.95-5.58,14.57-9.85,22.32-13.29,15.33-6.73,31.46-10.55,47.77-13.25,31.89-5.1,64.19-5.65,96.32-4.79,71.75,2.51,142.88,12.23,213.26,25.99,16.22,4.01,11.29,27.51-5.35,24.42h0Z"/>
    <path class="cls-2" d="M1543.4,1060.2c10.09-2.1,20.23-3.7,30.4-5.11,70.25-9.3,142.67-8.99,211.55,9.12,10.44,3.15,6.87,18.35-4,16.35-71.54-16.12-146.55-12.84-218.24.9-4.57.91-9.44,1.97-13.97,3.07-6.76,1.74-13.66-2.41-15.28-9.2-1.64-6.81,2.68-13.66,9.53-15.13h0Z"/>
    <path class="cls-2" d="M1559.37,1116.97c25.29-1.91,50.63-2.4,75.97-1.61,34.05,1.38,68.59,4.17,100.83,16.26,8.19,3.21,16.3,7.31,23.67,13.08,3.16,2.48,3.71,7.05,1.23,10.21-2.4,3.05-6.74,3.67-9.89,1.47-28.45-19.47-81.83-20.38-115.99-19.95-24.37.52-48.86,2.28-73.04,5.38-6.84.95-13.16-3.82-14.11-10.66-1.01-7.07,4.21-13.6,11.33-14.18h0Z"/>
  </g>
</svg>